<mxGraphModel dx="1478" dy="1314" grid="1" gridSize="10" guides="1" tooltips="1" connect="1" arrows="1" fold="1" page="0" pageScale="1" pageWidth="827" pageHeight="1169" math="0" shadow="0"><root><mxCell id="0"/><mxCell id="1" parent="0"/><mxCell id="154" value="" style="whiteSpace=wrap;html=1;strokeColor=none;" parent="1" vertex="1"><mxGeometry x="-620" y="-230" width="590" height="440" as="geometry"/></mxCell><mxCell id="8" style="edgeStyle=none;html=1;exitX=1;exitY=0.5;exitDx=0;exitDy=0;entryX=0;entryY=0.5;entryDx=0;entryDy=0;shape=flexArrow;fillColor=#e1d5e7;strokeColor=#9673a6;" parent="1" source="6" target="7" edge="1"><mxGeometry relative="1" as="geometry"/></mxCell><mxCell id="6" value="Class Files" style="shape=document;whiteSpace=wrap;html=1;boundedLbl=1;" parent="1" vertex="1"><mxGeometry x="-490" y="-210" width="100" height="60" as="geometry"/></mxCell><mxCell id="16" style="edgeStyle=none;html=1;exitX=0.25;exitY=1;exitDx=0;exitDy=0;entryX=0.667;entryY=0.005;entryDx=0;entryDy=0;entryPerimeter=0;fontColor=#FF491C;shape=flexArrow;fillColor=#e1d5e7;strokeColor=#9673a6;" parent="1" source="7" target="9" edge="1"><mxGeometry relative="1" as="geometry"/></mxCell><mxCell id="7" value="类加载器子系统" style="whiteSpace=wrap;html=1;fillColor=#fff2cc;strokeColor=#d6b656;" parent="1" vertex="1"><mxGeometry x="-310" y="-210" width="120" height="60" as="geometry"/></mxCell><mxCell id="18" style="edgeStyle=none;html=1;exitX=0.792;exitY=0;exitDx=0;exitDy=0;entryX=0.75;entryY=1;entryDx=0;entryDy=0;fontColor=#FF491C;exitPerimeter=0;shape=flexArrow;fillColor=#e1d5e7;strokeColor=#9673a6;" parent="1" source="9" target="7" edge="1"><mxGeometry relative="1" as="geometry"/></mxCell><mxCell id="9" value="" style="rounded=0;whiteSpace=wrap;html=1;fillColor=#f8cecc;strokeColor=#b85450;" parent="1" vertex="1"><mxGeometry x="-600" y="-100" width="480" height="190" as="geometry"/></mxCell><mxCell id="10" value="运行时数据区" style="text;html=1;align=center;verticalAlign=middle;resizable=0;points=[];autosize=1;strokeColor=none;fontColor=#FF491C;" parent="1" vertex="1"><mxGeometry x="-450" y="-90" width="90" height="20" as="geometry"/></mxCell><mxCell id="11" value="方法区&lt;br&gt;Method Area" style="rounded=0;whiteSpace=wrap;html=1;fontColor=#ffffff;fillColor=#a20025;strokeColor=#6F0000;" parent="1" vertex="1"><mxGeometry x="-580" y="-60" width="110" height="50" as="geometry"/></mxCell><mxCell id="12" value="堆&lt;br&gt;heap" style="rounded=0;whiteSpace=wrap;html=1;fontColor=#ffffff;fillColor=#a20025;strokeColor=#6F0000;" parent="1" vertex="1"><mxGeometry x="-580" y="20" width="110" height="50" as="geometry"/></mxCell><mxCell id="13" value="&lt;font color=&quot;#000000&quot;&gt;程序计数器&lt;br&gt;Program Counter Register&lt;br&gt;&lt;/font&gt;" style="whiteSpace=wrap;html=1;fontColor=#333333;fillColor=#f5f5f5;strokeColor=#666666;" parent="1" vertex="1"><mxGeometry x="-450" y="-60" width="150" height="50" as="geometry"/></mxCell><mxCell id="14" value="&lt;font color=&quot;#000000&quot;&gt;本地方法栈&lt;br&gt;Native Method Stack&lt;br&gt;&lt;/font&gt;" style="whiteSpace=wrap;html=1;fontColor=#333333;fillColor=#f5f5f5;strokeColor=#666666;" parent="1" vertex="1"><mxGeometry x="-280" y="-60" width="150" height="50" as="geometry"/></mxCell><mxCell id="15" value="&lt;font color=&quot;#000000&quot;&gt;虚拟机栈&lt;br&gt;Java Virtual Machine Stack&lt;br&gt;&lt;/font&gt;" style="whiteSpace=wrap;html=1;fontColor=#333333;fillColor=#f5f5f5;strokeColor=#666666;" parent="1" vertex="1"><mxGeometry x="-450" y="20" width="320" height="50" as="geometry"/></mxCell><mxCell id="35" value="" style="shape=flexArrow;html=1;fontColor=#FF491C;startArrow=block;fillColor=#e1d5e7;strokeColor=#9673a6;" parent="1" source="20" target="21" edge="1"><mxGeometry relative="1" as="geometry"/></mxCell><mxCell id="20" value="&lt;font color=&quot;#000000&quot;&gt;执行引擎&lt;br&gt;Execution Engine&lt;br&gt;&lt;/font&gt;" style="whiteSpace=wrap;html=1;fontColor=#333333;fillColor=#f5f5f5;strokeColor=#666666;" parent="1" vertex="1"><mxGeometry x="-600" y="130" width="150" height="50" as="geometry"/></mxCell><mxCell id="21" value="&lt;font color=&quot;#000000&quot;&gt;本地方法接口&lt;br&gt;Native Method Interface&lt;br&gt;&lt;/font&gt;" style="whiteSpace=wrap;html=1;fontColor=#333333;fillColor=#f5f5f5;strokeColor=#666666;dashed=1;" parent="1" vertex="1"><mxGeometry x="-400" y="130" width="150" height="50" as="geometry"/></mxCell><mxCell id="34" value="" style="edgeStyle=none;shape=flexArrow;html=1;fontColor=#FF491C;fillColor=#e1d5e7;strokeColor=#9673a6;" parent="1" source="22" target="21" edge="1"><mxGeometry relative="1" as="geometry"/></mxCell><mxCell id="22" value="&lt;font color=&quot;#000000&quot;&gt;本地方法库&lt;br&gt;Native Method Libraries&lt;br&gt;&lt;/font&gt;" style="text;html=1;align=center;verticalAlign=middle;resizable=0;points=[];autosize=1;strokeColor=none;fontColor=#FF491C;" parent="1" vertex="1"><mxGeometry x="-210" y="140" width="140" height="30" as="geometry"/></mxCell><mxCell id="23" style="edgeStyle=none;html=1;exitX=0.25;exitY=1;exitDx=0;exitDy=0;entryX=0.667;entryY=0.005;entryDx=0;entryDy=0;entryPerimeter=0;fontColor=#FF491C;shape=flexArrow;fillColor=#e1d5e7;strokeColor=#9673a6;" parent="1" edge="1"><mxGeometry relative="1" as="geometry"><mxPoint x="-551" y="84.05000000000001" as="sourcePoint"/><mxPoint x="-550.8399999999999" y="135.00000000000006" as="targetPoint"/></mxGeometry></mxCell><mxCell id="24" style="edgeStyle=none;html=1;exitX=0.792;exitY=0;exitDx=0;exitDy=0;entryX=0.75;entryY=1;entryDx=0;entryDy=0;fontColor=#FF491C;exitPerimeter=0;shape=flexArrow;fillColor=#e1d5e7;strokeColor=#9673a6;" parent="1" edge="1"><mxGeometry relative="1" as="geometry"><mxPoint x="-490.8399999999999" y="134.05" as="sourcePoint"/><mxPoint x="-491" y="84.05000000000001" as="targetPoint"/></mxGeometry></mxCell><mxCell id="25" style="edgeStyle=none;html=1;exitX=0.25;exitY=1;exitDx=0;exitDy=0;entryX=0.667;entryY=0.005;entryDx=0;entryDy=0;entryPerimeter=0;fontColor=#FF491C;shape=flexArrow;fillColor=#e1d5e7;strokeColor=#9673a6;" parent="1" edge="1"><mxGeometry relative="1" as="geometry"><mxPoint x="-355.5" y="83.05000000000001" as="sourcePoint"/><mxPoint x="-355.3399999999999" y="134.00000000000006" as="targetPoint"/></mxGeometry></mxCell><mxCell id="26" style="edgeStyle=none;html=1;exitX=0.792;exitY=0;exitDx=0;exitDy=0;entryX=0.75;entryY=1;entryDx=0;entryDy=0;fontColor=#FF491C;exitPerimeter=0;shape=flexArrow;fillColor=#e1d5e7;strokeColor=#9673a6;" parent="1" edge="1"><mxGeometry relative="1" as="geometry"><mxPoint x="-295.3399999999999" y="133.05" as="sourcePoint"/><mxPoint x="-295.5" y="83.05000000000001" as="targetPoint"/></mxGeometry></mxCell><mxCell id="155" value="Java内存结构" style="text;html=1;align=center;verticalAlign=middle;resizable=0;points=[];autosize=1;strokeColor=none;" parent="1" vertex="1"><mxGeometry x="-720" y="-230" width="90" height="20" as="geometry"/></mxCell></root></mxGraphModel>